<?xml version="1.0" encoding="UTF-8" standalone="no"?>
<!-- Generator: Adobe Illustrator 12.0.1, SVG Export Plug-In . SVG Version: 6.00 Build 51448)  -->

<svg
   xmlns:dc="http://purl.org/dc/elements/1.1/"
   xmlns:cc="http://creativecommons.org/ns#"
   xmlns:rdf="http://www.w3.org/1999/02/22-rdf-syntax-ns#"
   xmlns:svg="http://www.w3.org/2000/svg"
   xmlns="http://www.w3.org/2000/svg"
   xmlns:sodipodi="http://sodipodi.sourceforge.net/DTD/sodipodi-0.dtd"
   xmlns:inkscape="http://www.inkscape.org/namespaces/inkscape"
   version="1.0"
   id="Layer_1"
   width="260"
   height="260"
   viewBox="0 0 259.99999 260"
   overflow="visible"
   enable-background="new 0 0 436.505 152.503"
   xml:space="preserve"
   sodipodi:docname="logo-small.svg"
   style="overflow:visible"
   inkscape:version="0.92.2 (5c3e80d, 2017-08-06)"
   inkscape:export-filename="C:\Users\julio\Desktop\Projects\djangomonteria.org\djangomonteria-page\static\img\logo-small.png"
   inkscape:export-xdpi="96"
   inkscape:export-ydpi="96"><metadata
     id="metadata924"><rdf:RDF><cc:Work
         rdf:about=""><dc:format>image/svg+xml</dc:format><dc:type
           rdf:resource="http://purl.org/dc/dcmitype/StillImage" /><dc:title></dc:title></cc:Work></rdf:RDF></metadata><defs
     id="defs922" /><sodipodi:namedview
     pagecolor="#ffffff"
     bordercolor="#666666"
     borderopacity="1"
     objecttolerance="10"
     gridtolerance="10"
     guidetolerance="10"
     inkscape:pageopacity="0"
     inkscape:pageshadow="2"
     inkscape:window-width="1360"
     inkscape:window-height="705"
     id="namedview920"
     showgrid="false"
     inkscape:zoom="0.71843817"
     inkscape:cx="92.557101"
     inkscape:cy="211.45181"
     inkscape:window-x="-8"
     inkscape:window-y="32"
     inkscape:window-maximized="1"
     inkscape:current-layer="g4653"
     fit-margin-top="0"
     fit-margin-left="0"
     fit-margin-right="0"
     fit-margin-bottom="0" /><g
     id="g917"
     style="fill:#2c89a0;stroke-width:0.99851483"
     transform="matrix(1.0014874,0,0,1.0014874,3.0385384,53.365857)"><path
       style="fill:#2c89a0;stroke-width:0.99851483"
       inkscape:connector-curvature="0"
       id="path903"
       d="M 51.464,0 H 75.336 V 110.496 C 63.09,112.821 54.099,113.751 44.334,113.751 15.191,113.75 0,100.576 0,75.308 0,50.971 16.122,35.161 41.078,35.161 c 3.875,0 6.82,0.309 10.386,1.239 z m 0,55.62 c -2.79,-0.929 -5.115,-1.239 -8.06,-1.239 -12.091,0 -19.067,7.441 -19.067,20.461 0,12.712 6.666,19.687 18.912,19.687 2.634,0 4.805,-0.155 8.215,-0.619 z" /><path
       style="fill:#2c89a0;stroke-width:0.99851483"
       inkscape:connector-curvature="0"
       id="path905"
       d="m 113.312,36.865 v 55.338 c 0,19.067 -1.395,28.212 -5.58,36.118 -3.876,7.597 -8.992,12.401 -19.532,17.672 L 66.033,135.452 c 10.541,-4.96 15.656,-9.299 18.911,-15.967 3.411,-6.82 4.497,-14.726 4.497,-35.497 V 36.865 Z M 89.441,0.127 h 23.871 V 24.619 H 89.441 Z" /></g><text
     xml:space="preserve"
     style="font-style:normal;font-weight:normal;font-size:40px;line-height:1.25;font-family:sans-serif;letter-spacing:0px;word-spacing:0px;fill:#000000;fill-opacity:1;stroke:none"
     x="323.33038"
     y="381.60095"
     id="text946"><tspan
       sodipodi:role="line"
       id="tspan944"
       x="323.33038"
       y="418.09418" /></text>
<g
     id="g4653"
     transform="translate(0,158.75467)"><rect
       y="-86.411064"
       x="135.90581"
       height="123.80931"
       width="122.88718"
       id="rect952"
       style="fill:#ffcc00;fill-opacity:1;stroke-width:1" /><rect
       y="-99.485153"
       x="125.18378"
       height="126.2737"
       width="110.04884"
       id="rect954"
       style="fill:none;fill-opacity:1;stroke:#2c89a0;stroke-width:2.8346467;stroke-opacity:1" /><text
       xml:space="preserve"
       style="font-style:normal;font-variant:normal;font-weight:normal;font-stretch:normal;font-size:51.54760361px;line-height:1.25;font-family:'Bauhaus 93';-inkscape-font-specification:'Bauhaus 93, ';letter-spacing:0px;word-spacing:0px;fill:#4d4d4d;fill-opacity:1;stroke:none;stroke-width:1.00000012"
       x="136.46988"
       y="9.1686563"
       id="text4659"><tspan
         sodipodi:role="line"
         x="136.46988"
         y="9.1686563"
         style="font-size:123.23136902px;fill:#4d4d4d;stroke-width:1.00000012"
         id="tspan187">C</tspan></text>
</g></svg>