<?xml version="1.0" encoding="UTF-8" standalone="no"?>
<!-- Page 1 -->

<svg
   xmlns:dc="http://purl.org/dc/elements/1.1/"
   xmlns:cc="http://creativecommons.org/ns#"
   xmlns:rdf="http://www.w3.org/1999/02/22-rdf-syntax-ns#"
   xmlns:svg="http://www.w3.org/2000/svg"
   xmlns="http://www.w3.org/2000/svg"
   xmlns:sodipodi="http://sodipodi.sourceforge.net/DTD/sodipodi-0.dtd"
   xmlns:inkscape="http://www.inkscape.org/namespaces/inkscape"
   x="0"
   y="0"
   width="409.3432"
   height="409.24994"
   viewBox="0 0 409.3432 409.24994"
   version="1.1"
   style="display:block"
   id="svg12329"
   sodipodi:docname="ride.svg"
   inkscape:version="0.92.2 (5c3e80d, 2017-08-06)">
  <metadata
     id="metadata12333">
    <rdf:RDF>
      <cc:Work
         rdf:about="">
        <dc:format>image/svg+xml</dc:format>
        <dc:type
           rdf:resource="http://purl.org/dc/dcmitype/StillImage" />
        <dc:title></dc:title>
      </cc:Work>
    </rdf:RDF>
  </metadata>
  <sodipodi:namedview
     pagecolor="#ffffff"
     bordercolor="#666666"
     borderopacity="1"
     objecttolerance="10"
     gridtolerance="10"
     guidetolerance="10"
     inkscape:pageopacity="0"
     inkscape:pageshadow="2"
     inkscape:window-width="1360"
     inkscape:window-height="705"
     id="namedview12331"
     showgrid="false"
     fit-margin-top="0"
     fit-margin-left="0"
     fit-margin-right="0"
     fit-margin-bottom="0"
     inkscape:zoom="0.80282685"
     inkscape:cx="206.6093"
     inkscape:cy="203.75189"
     inkscape:window-x="-8"
     inkscape:window-y="32"
     inkscape:window-maximized="1"
     inkscape:current-layer="svg12329" />
  <defs
     id="defs8307">
    <clipPath
       id="c0_1">
      <path
         d="m 1734.5,189.7 c -8,0 -16.1,-0.2 -24.1,-0.5 -6.5,-0.2 -13.1,-0.4 -19.6,-1.8 -4.5,-0.9 -8.9,-2.4 -13.3,-3.9 -2.5,-0.9 -13.4,-2.5 -16.7,-5.9 -2.3,-4.9 -1.3,-11.2 2.4,-15.2 2.3,-2.4 5.5,-3.9 7.5,-6.6 1.7,-2.3 2.5,-5.2 3.6,-7.9 1.2,-2.6 2.8,-5.1 4.4,-7.5 2.1,-3 4.2,-6.2 7.4,-8.1 1.8,-1 3.9,-1.5 6,-1.5 3.2,0 6.4,1.2 8.7,3.4 1.5,1.5 3,3.7 5.2,3.7 0.9,0 1.7,-0.4 2.6,-0.6 0.6,-0.1 1.3,-0.2 2,-0.2 2.2,0 4.6,0.8 6.8,1.3 1.8,0.3 3.7,0.5 5.5,0.5 3.7,0 7.4,-0.8 10.8,-2.2 3.7,-1.7 6.9,-4.1 10.5,-5.9 2.6,-1.2 5.4,-2.1 8.2,-2.1 1.2,0 2.4,0.1 3.5,0.5 3,1 5.6,3.3 8.7,3.8 0.6,0.1 1.1,0.1 1.7,0.1 0.4,0 0.8,0 1.2,0 0.4,0 0.8,0 1.2,0 0.6,0 1.3,0 2,0.2 4.4,0.9 6.7,5.6 9.9,8.9 2.7,2.9 6.3,4.9 10.2,5.5 3.4,0.6 7,0.3 9.8,2.1 3,2 4,5.9 4.5,9.4 0.5,3.8 0.7,7.6 0.6,11.4 0,1.8 -0.2,3.7 -1.1,5.3 -1.4,2.2 -4,3.3 -6.4,4.1 -11.1,3.9 -22.6,6.6 -34.3,8.1 -9.7,1.2 -19.5,1.6 -29.4,1.6 z"
         id="path8248"
         inkscape:connector-curvature="0" />
    </clipPath>
    <clipPath
       id="c1_1">
      <path
         d="m 682.5,994.2 c -16.2,0 -32.5,-0.6 -48.7,-1.2 -14.4,-0.6 -29.4,-1.2 -42.2,-7.8 -6.1,-3.1 -12.2,-8.7 -11.5,-15.6 0.1,-1.1 0.4,-2.2 0.9,-3.2 3.6,-10.3 8.7,-12.2 11.1,-15.9 2.4,-3.7 6.1,-6.8 10.4,-7.4 2.3,-0.3 4.7,0 6.7,-1 3.6,-1.8 4.4,-6.9 8,-8.8 1.1,-0.6 2.4,-0.8 3.6,-0.8 0.9,0 1.8,0.1 2.6,0.2 0.9,0 1.7,0.1 2.6,0.1 0.7,0 1.3,0 2,-0.2 3.5,-0.6 6.1,-3.4 9.5,-4.5 1.1,-0.3 2.2,-0.4 3.4,-0.4 2,0 4.1,0.4 6.1,0.8 2.1,0.4 4.2,0.8 6.2,0.8 1.2,0 2.3,-0.1 3.4,-0.5 3.4,-1 6.1,-3.9 9.6,-4.4 0.3,0 0.7,0 1.1,0 1.9,0 3.8,0.6 5.7,1.3 1.9,0.6 3.7,1.3 5.7,1.3 0.4,0 0.8,-0.1 1.2,-0.1 3.2,-0.5 6.1,-3.2 9.3,-3.2 0.2,0 0.4,0 0.6,0 4.1,0.4 6.3,5.2 10,7 1.4,0.7 3,0.9 4.6,0.9 1.8,0 3.6,-0.2 5.3,-0.4 0.8,-0.1 1.5,-0.1 2.3,-0.1 2.7,0 5.4,0.6 7.1,2.6 1.3,1.5 2.1,4 4.1,4.2 0.1,0 0.2,0 0.3,0 0.9,0 1.8,-0.4 2.6,-0.7 0.7,-0.2 1.5,-0.3 2.3,-0.3 2,0 4,0.8 5.4,2.2 1.1,1.1 1.9,2.6 3.2,3.5 1.4,1.1 3.2,1.4 5,1.8 7.9,1.8 19.1,-3.3 27.1,15.4 2.6,4.1 3.6,9.2 1.6,13.5 -1.2,2.4 -3.1,4.3 -5.2,6 -11.4,9.2 -26.5,11.8 -41.1,13.2 -13.9,1.3 -27.9,1.7 -41.9,1.7 z"
         id="path8251"
         inkscape:connector-curvature="0" />
    </clipPath>
    <clipPath
       id="c2_1">
      <path
         d="m 261.6,1064.8 c -1.9,0 -3.9,-0.6 -5.7,-1.3 -12,-4 -18.6,-6.4 -30.3,-11 -5.5,-2 -3.7,-5.8 -2.9,-7.7 9.6,-24.5 16.1,-50.3 20.2,-76.3 3.5,-22.3 5.3,-45 2.4,-67.3 -5.7,-43.5 -27.2,-82.2 -62.5,-108.1 0,0 -1.8,-0.9 0.7,-5.2 5.3,-8.1 16.9,-15.1 28.8,-21.3 1.3,-0.7 2.7,-1.4 4.2,-1.5 0.1,0 0.2,0 0.4,0 1.6,0 3.1,0.7 4.5,1.5 4.1,2.3 7.4,5.8 10.5,9.3 18.4,20.3 34.8,42.6 46.8,67.2 12,24.7 19.5,51.7 19.6,79.1 0,27 -6.9,53.5 -13.9,79.6 -4.7,17.6 -9.4,35.3 -14,52.9 -1.1,3.9 -2.6,8.3 -6.4,9.7 -0.8,0.3 -1.6,0.4 -2.4,0.4 z"
         id="path8254"
         inkscape:connector-curvature="0" />
    </clipPath>
    <clipPath
       id="c3_1">
      <path
         d="M 0,2012.3 V 0 h 2830.6 v 2012.3 z"
         id="path8257"
         inkscape:connector-curvature="0" />
    </clipPath>
    <clipPath
       id="c4_1">
      <path
         d="m 1705.3,291.3 c -17,0 -33.9,-1.4 -50.7,-4 -13.9,-2.2 -30.9,-9.6 -39.1,-14.4 -3.1,-1.6 -3.8,-7.1 -1.2,-9.8 2.6,-2.8 8.3,-5.4 12,-6.4 10.1,-2.6 20.2,-5.1 30.2,-7.7 3.9,-1 7.8,-2 11.8,-2 0.2,0 0.5,0 0.8,0 4.4,0.2 8.6,1.6 13,1.6 0.1,0 0.3,0 0.4,0 3.8,-0.1 7.5,-1.3 11.2,-1.6 0.5,0 1.1,0 1.6,0 6.4,0 12.6,2.4 19,2.7 0.6,0.1 1.1,0.1 1.6,0.1 2,0 4.1,-0.2 6.1,-0.4 2.1,-0.1 4.1,-0.3 6.2,-0.3 4,0 7.9,0.7 11.8,1.3 6.3,1.1 12.6,2.1 18.9,3.2 5.1,0.9 10.3,1.8 14.7,4.4 4.5,2.5 8.1,7.2 8,12.4 -0.1,4.6 -3.2,8.7 -7.1,11.2 -3.9,2.5 -8.5,3.6 -13,4.6 -7.4,1.4 -14.8,2.5 -22.3,3.3 -11.3,1.2 -22.6,1.8 -33.9,1.8 z"
         id="path8260"
         inkscape:connector-curvature="0" />
    </clipPath>
    <clipPath
       id="c5_1">
      <path
         d="m 262.2,1693.8 c -10.1,0 -22.4,-10 -33.7,-28.9 -11.2,-18.6 -16.1,-69 -4.9,-106.9 11.1,-37.9 45.3,-62.7 76.6,-86.8 8.2,-6.3 15.7,-44.1 46.8,-44.1 3.3,0 6.8,0.4 10.7,1.4 l 14.3,25.4 c 3,12.6 5.1,25.6 3.9,38.5 -1.3,12.9 -6.4,25.8 -16.1,34.4 -5.7,5.1 -12.7,8.5 -19,13 -10.5,7.5 -18.6,17.9 -25.6,28.8 -24.2,37.6 -29.7,45.2 -32.5,89.8 -1.6,24 -9.7,35.4 -20.5,35.4 z"
         id="path8263"
         inkscape:connector-curvature="0" />
    </clipPath>
    <clipPath
       id="c6_1">
      <path
         d="m 2181.6,646.4 c -3.5,0 -7.2,-0.7 -10.7,-1.5 -41.5,-8.8 -81.6,-23.9 -118.7,-44.6 -25.9,-14.5 -88.4,-196.8 -61.5,-257.9 21.4,-48.6 65,-83.4 109.4,-112.2 81.4,-52.9 172.7,-93.1 269.1,-103.6 20.9,-2.3 42,-3.1 63,-3.1 26.5,0 53,1.3 79.4,3 39.6,2.4 79.1,5.5 118.6,9.3 38.7,3.6 80.9,9.6 107.1,38.2 16.4,17.9 32.7,75.2 37.5,75.2 0.3,0 0.5,-0.2 0.7,-0.7 0.5,26.6 0.4,53.1 -0.2,79.7 -0.7,26.1 -2,52.2 -3.8,78.2 -0.4,6.3 -1,12.8 -4,18.4 -4.1,7.3 -11.8,11.7 -19.5,15 -27.2,11.7 -57.9,14.4 -84.2,28.1 -24.7,12.9 -44.4,35 -70.8,43.8 -21.1,7.1 -44.2,4.8 -66.3,7.8 -33.8,4.6 -64.7,21.5 -98,29.1 -48.5,11.1 -101.4,2.3 -147,22.2 -31.6,13.8 -56,39.8 -80,64.6 -4,4.1 -8.3,8.4 -13.8,10.1 -2,0.6 -4.1,0.9 -6.3,0.9 z"
         id="path8266"
         inkscape:connector-curvature="0" />
    </clipPath>
    <clipPath
       id="c7_1">
      <path
         d="m 2207.4,355.4 v 0 c 1.2,-2.8 4.9,-5.4 7.2,-7.8 7.2,-7.3 14.6,-14.4 21.8,-21.6 6.2,-6.2 12.9,-11.9 19.3,-18 3.2,-3 8.3,-7.3 12.8,-9 0.7,-0.3 6,-0.4 14.6,-0.4 18.5,0 52.2,0.5 85.8,1 33.7,0.5 67.4,0.9 86,0.9 5.5,0 9.7,0 12.2,-0.1 15.2,-0.6 30.5,-1.3 45.8,-1.3 4.4,0 8.7,0.1 13,0.2 4.2,0.1 8.4,0.2 12.6,0.2 13.2,0 26.5,-0.5 39.8,-0.8 2.7,-0.1 5.1,-0.3 7.2,-0.3 3.5,0 6.5,0.6 10,3.1 5.6,4.1 9.1,11.3 13.2,16.3 4.8,5.9 8.6,11.9 11.8,18.5 1.7,3.4 3.1,7.2 5.8,10.2 1.3,1.4 2.8,2.3 3.8,3.7 -13.2,1 -26.4,1.2 -39.6,1.2 -9.7,0 -19.3,-0.1 -29,-0.3 -9.7,-0.1 -19.3,-0.2 -29,-0.2 -6.4,0 -12.9,0 -19.3,0.2 -42.8,1.1 -258.1,2.4 -281.1,2.4 -1.1,0 -1.8,-0.1 -1.9,-0.1 -0.1,0 -0.2,0 -0.3,0 -1.1,0 -2.3,0.2 -3.5,0.4 -1.1,0.2 -2.3,0.4 -3.4,0.4 -0.6,0 -1.2,0 -1.8,-0.2 z"
         id="path8269"
         inkscape:connector-curvature="0" />
    </clipPath>
    <clipPath
       id="c8_1">
      <path
         d="m 2329.8,842.9 c 0,0 -15,-44.2 -17.9,-55.5 -2.7,-10.7 -12,-59.3 -12,-59.3 0,0 93.2,-17.2 99.1,-24 1.2,-1.4 2.4,-2 3.6,-2 8.5,0 18.8,28.1 25.9,55.7 7.8,30.9 11.9,61.3 0.6,61.3 -0.3,0 -0.6,0 -0.9,-0.1 -0.1,0 -0.3,0 -0.6,0 -10.9,0 -97.8,23.9 -97.8,23.9 z"
         id="path8272"
         inkscape:connector-curvature="0" />
    </clipPath>
    <clipPath
       id="c9_1">
      <path
         d="m 2185.7,627.3 c -0.8,-7.6 -0.2,-15.3 1.7,-22.7 0.2,-0.8 0.5,-1.7 1,-2.4 0.7,-0.9 1.7,-1.4 2.6,-1.8 3.7,-1.8 7.4,-3.6 11,-5.4 1.3,-0.5 2.5,-1.1 3.9,-1.1 0,0 0.1,0 0.2,0 1.4,0 2.6,0.8 3.8,1.5 6.8,4.4 12.6,10.2 17,17 z"
         id="path8275"
         inkscape:connector-curvature="0" />
    </clipPath>
    <clipPath
       id="c10_1">
      <path
         d="m 2113.5,134.2 -34,-18.3 c 4.6,-4.9 10,-9 16,-12.1 0.7,-0.4 1.4,-0.7 2.2,-0.8 0,0 0.1,0 0.2,0 0.8,0 1.7,0.3 2.4,0.7 3.4,1.3 6.7,2.7 10,4 1.2,0.5 2.4,1 3.1,2 0.8,0.9 1.1,2.2 1.3,3.4 1.1,7 0.7,14.3 -1.2,21.1 z"
         id="path8278"
         inkscape:connector-curvature="0" />
    </clipPath>
    <clipPath
       id="c11_1">
      <path
         d="m 2058.2,273 c -1.6,0 -3.6,-0.3 -4.2,-0.5 -2.3,-0.7 -4.6,-1.4 -6.9,-1.9 -2.9,-0.7 -5.9,-1.5 -8.7,-2.3 -1.4,-0.4 -2.3,-0.7 -2.9,-2.1 -0.5,-1.5 -0.7,-5.8 0.2,-7 l 10.9,-62.4 c 11.7,-5.9 27.5,-7.6 41.2,-7.6 14.2,0 26,1.8 28.2,2.6 2.2,0.8 7.8,10.6 8.8,12.1 2.3,3.4 -2.2,24.8 -3,31.4 -1.4,11.5 -4.5,19.1 -7.2,32.9 -1.2,-0.5 -9,-2.4 -20,-2.4 -9.9,0 -22.2,1.6 -34.6,6.9 -0.4,0.2 -1,0.3 -1.8,0.3 z"
         id="path8281"
         inkscape:connector-curvature="0" />
    </clipPath>
    <clipPath
       id="c12_1">
      <path
         d="m 199.6,1235.9 c -1.9,0 -3.8,-0.2 -5.5,-0.3 -5.2,-0.5 -14.2,-1.8 -18.5,-4.9 -4.4,-3.1 -2.1,-11.9 -1.9,-16.6 0.5,-12.6 3,-24.4 5,-36.8 1.6,-10.5 3.2,-21.2 6.2,-31.4 l 13.9,0.9 c 7.4,0 10,6.1 10.7,12.5 1.4,13.5 1,27 3.2,40.5 1.3,7.8 2.5,15.5 2.4,23.4 0,4.2 0.4,8.4 -3.8,10.4 -3.5,1.7 -7.7,2.3 -11.7,2.3 z"
         id="path8284"
         inkscape:connector-curvature="0" />
    </clipPath>
    <clipPath
       id="c13_1">
      <path
         d="m 244.3,1235.9 c -4.1,0 -8.3,-0.6 -11.8,-2.3 -4.2,-2 -3.8,-6.2 -3.8,-10.4 -0.1,-7.9 1.1,-15.6 2.4,-23.4 2.2,-13.5 1.8,-27 3.2,-40.5 0.7,-6.4 3.4,-12.5 10.7,-12.5 l 13.9,-0.9 c 3,10.2 4.6,20.9 6.2,31.4 2,12.4 4.5,24.2 5,36.8 0.2,4.7 2.5,13.5 -1.9,16.6 -4.3,3.1 -13.3,4.4 -18.5,4.9 -1.7,0.1 -3.6,0.3 -5.4,0.3 z"
         id="path8287"
         inkscape:connector-curvature="0" />
    </clipPath>
    <clipPath
       id="c14_1">
      <path
         d="m 181.5,1322.3 v 0 c -2.9,-14.2 -6.1,-28.3 -9,-42.5 -14.8,21.9 -0.2,40 9,42.5 z m 25.7,124.2 c -5.1,0 -10,-0.6 -15.1,-0.8 -0.2,0 -0.5,0 -0.7,0 -0.5,0 -1.1,0 -1.6,0 -0.6,0.1 -1.1,0.1 -1.7,0.1 -1.8,0 -3.6,-0.2 -5,-0.9 -6.8,-3.4 -0.2,-10.9 2.1,-15.2 2.8,-5 6.9,-8.5 8.4,-14.1 1.5,-5.9 -0.4,-11.3 -0.8,-17.2 -0.5,-7.8 -1.2,-15.6 -2,-23.4 -0.9,-8.7 -2.8,-17.1 -4.3,-25.7 -0.5,0 -1,0 -1.3,-0.1 -5.8,-0.1 -34.1,-2.3 -44.2,-27.9 -5.1,-13.3 -4,-29.5 -1.5,-43.3 2,-10.5 5.2,-21.7 9.8,-31.4 3.1,-6.4 8.3,-11.2 13.9,-15.3 4.4,-3.1 9,-6.7 13.9,-9.2 1.7,-1.2 3.5,-2.2 5.3,-2.9 1,-0.4 4.1,-0.8 4.7,-1.4 1.1,-1.3 -0.3,-3.5 0.4,-5 0.8,-1.5 4.7,-3.8 6.8,-3.8 0.4,0 0.7,0.1 0.9,0.3 l 27.6,0.3 27.8,-0.3 c 0.3,-0.2 0.6,-0.3 1,-0.3 2.1,0 6.1,2.3 6.8,3.8 0.7,1.5 -0.6,3.7 0.5,5 0.6,0.6 3.7,1 4.7,1.4 3.6,1.4 7.4,3.8 9.2,6.9 5.7,9.6 6.5,22.1 4.8,32.7 -4.8,29.3 -12.8,58.2 -17.6,87.6 -1.6,9.6 -3.9,18.9 -4.8,28.6 -0.8,7.8 -1.6,15.6 -2.1,23.4 -0.4,5.9 -2.4,11.3 -0.8,17.2 1.5,5.6 5.7,9.1 8.5,14.1 2.3,4.3 9.1,11.8 2.1,15.2 -1.4,0.7 -3.2,0.9 -5.1,0.9 -0.5,0 -1.1,0 -1.6,-0.1 -0.6,0 -1.1,0 -1.6,0 -0.3,0 -0.5,0 -0.8,0 -5.1,0.2 -10.1,0.8 -15.3,0.8 h -0.1 c -3.1,0 -6.3,-0.3 -9.4,-0.3 -0.7,0 -1.3,0 -1.9,0 -0.8,0.1 -2.5,0.1 -4.3,0.1 -1.8,0 -3.5,0 -4.2,-0.1 -0.7,0 -1.3,0 -1.9,0 -3.1,0 -6.3,0.3 -9.4,0.3 0,0 -0.1,0 -0.1,0 z"
         id="path8290"
         inkscape:connector-curvature="0" />
    </clipPath>
    <clipPath
       id="c15_1">
      <path
         d="m 224.1,1219.4 c -10,0 -21.8,-1.2 -28.9,-7.9 -5.5,-5.3 -8.6,-14.5 -9.3,-21.9 -0.1,-0.6 -0.1,-1.4 -0.2,-2.4 -0.3,0 -0.5,0 -0.8,0 -1,0 -2,-0.2 -2.9,-0.6 -3.2,-1.7 -5.8,-7.3 -6,-10.7 -0.3,-3.9 0.5,-8.7 4.9,-8.7 0.2,0 0.4,0 0.5,0.1 0.9,0 2,0.2 3,0.6 -0.3,-5.6 -0.7,-11.2 -0.7,-11.2 l -14.8,-15.6 c 0,0 -2.6,-12.8 -1.2,-18.8 1.5,-6.2 3.8,-9 0,-14.4 -2.2,-3.2 -5.9,-6.2 -1.7,-9.4 1.6,-1.2 4,-1.6 6.5,-1.6 3.3,0 6.8,0.6 9.1,0.7 3.7,0.1 22.5,0.2 41.2,0.2 18.7,0 37.4,-0.1 41.2,-0.2 2.3,-0.1 5.8,-0.7 9.1,-0.7 2.5,0 4.8,0.4 6.4,1.6 4.3,3.2 0.6,6.2 -1.6,9.4 -3.8,5.4 -1.6,8.2 -0.1,14.4 1.5,6 -1.1,18.8 -1.1,18.8 l -18.3,17.2 c 0,0 0.5,6 0.8,9.3 0.7,-0.2 1.5,-0.3 2.1,-0.3 0.2,-0.1 0.4,-0.1 0.5,-0.1 4.5,0 5.3,4.8 5,8.7 -0.2,3.4 -2.9,9 -6.1,10.7 -0.4,0.2 -0.9,0.4 -1.5,0.5 -0.5,7.7 -2.1,15 -5.4,19.6 -7.7,10.7 -19.3,12.5 -25.7,12.6 -1.3,0.1 -2.6,0.1 -4,0.1 z"
         id="path8293"
         inkscape:connector-curvature="0" />
    </clipPath>
    <clipPath
       id="c16_1">
      <path
         d="m 272.9,1347.8 c -5.2,0 -13.8,-24.8 -8.7,-25.2 9.3,-0.7 27.8,-21.4 8.2,-46 -1.5,-2.9 -4,-5.4 -4.7,-8.6 l -2.7,-48 c 6.9,2.2 13.2,7.1 19,11.3 5.6,4.1 10.9,8.9 13.9,15.3 4.6,9.7 7.8,20.9 9.8,31.4 2.6,13.8 3.6,30 -1.5,43.3 -6.8,17.3 -22.1,24 -32.9,26.5 -0.2,0 -0.3,0 -0.4,0 z"
         id="path8296"
         inkscape:connector-curvature="0" />
    </clipPath>
    <clipPath
       id="c17_1">
      <path
         d="m 244.9,1293.3 c -0.8,0 -1.6,0 -2.4,-0.1 -2.6,-0.3 -6,-0.9 -7.7,-3.2 -1.7,-2.2 -2,-5.4 -4,-7.6 -2.1,-2.3 -4.3,-1.4 -6.6,-2.8 -3.6,-2.3 -4.1,-10.8 -5,-14.7 -0.8,-4 -1.1,-8.3 -0.5,-12.4 0.6,-4.1 1.2,-9.1 2.7,-12.9 3.6,-9 15.2,-16.3 25,-16.3 0.4,0 0.7,0 1,0 0.5,-0.1 1,-0.1 1.5,-0.1 8.9,0 14.2,8.3 18.5,15.3 3.2,5.4 5.5,11.1 8.1,16.8 2.4,5.4 5,10.6 5.4,16.5 0.2,3 0.9,8.6 -1.1,11.2 -1.2,1.4 -2.9,1.7 -4.6,1.7 -0.3,0 -0.7,-0.1 -1,-0.1 -0.3,0 -0.6,0 -1,0 -0.1,0 -0.2,0 -0.4,0 -5.2,0.2 -6.6,4.2 -11,5.5 -4.9,1.5 -11.3,3.2 -16.9,3.2 z"
         id="path8299"
         inkscape:connector-curvature="0" />
    </clipPath>
    <clipPath
       id="c18_1">
      <path
         d="m 269.2,1355.6 c -1.6,0 -3.4,-0.3 -5.4,-0.4 -16.9,-1.2 -33.1,-4.3 -49.9,-6 -2.3,-0.3 -5.3,-0.8 -8,-0.8 -1,0 -2.1,0.1 -3,0.3 -2.9,0.6 -3.8,3.6 -6.4,4.1 -0.3,0.1 -0.6,0.1 -0.9,0.1 -7.1,0 -3.7,-18.1 0.7,-20.9 1.6,-1 3.5,-1.3 5.5,-1.3 3.9,0 8.1,1.3 11.3,1.9 2.3,0.5 4.5,0.7 6.8,0.7 5.2,0 10.3,-1 15.6,-1.2 -3.6,-2.3 -3.3,-5.8 -0.4,-9.9 1.7,-2.4 2.5,-3.6 2.6,-6.9 0,-3.1 -0.3,-6.4 0,-9.5 0.5,-4.5 2.7,-9.2 6.3,-10.6 0.5,-2.2 1.2,-4.5 2.8,-5.5 l 30.3,-15.4 c 1.3,7.4 4.3,17.6 6.7,24.8 3,8.9 4.7,18 5.1,27.4 0.1,4.3 0.3,9.4 -2,13.2 -1.7,2.8 -4.2,5.1 -6.1,7.8 -1.9,2.4 -3.8,4.8 -6.4,6.6 -1.8,1.2 -3.5,1.5 -5.2,1.5 z"
         id="path8302"
         inkscape:connector-curvature="0" />
    </clipPath>
    <style
       type="text/css"
       id="style8305"><![CDATA[

.g0_1{
fill: #10383A;
}
.g1_1{
fill: #82C553;
}
.g2_1{
fill: #219090;
}
.g3_1{
fill: #EF7A39;
}
.g4_1{
fill: #FCC151;
}
.g5_1{
fill: #145A62;
}
.g6_1{
fill: #F7B231;
}
.g7_1{
fill: #ACD36C;
}
.g8_1{
fill: #FCFBE0;
}
.g9_1{
fill: #DEAA55;
}
.g10_1{
fill: #E9E9E9;
}
.g11_1{
fill: #C45D39;
}
.g12_1{
fill: #6AC9CE;
}
.g13_1{
fill: #8C7531;
}
.g14_1{
fill: #1F8F8F;
}
.g15_1{
fill: #E7EB97;
}
.g16_1{
fill: #F0BF19;
}
.g17_1{
fill: #105275;
}
.g18_1{
fill: #B4B1BB;
}
.g19_1{
fill: #81C453;
}
.g20_1{
fill: #FBFBE0;
}
.g21_1{
fill: #DED6A7;
}
.g22_1{
fill: #B0A87B;
}
.g23_1{
fill: #E8E8E7;
}
.g24_1{
fill: #E7E8E9;
}
.g25_1{
fill: #0F7676;
}
.g26_1{
fill: #EBE9D4;
}
.g27_1{
fill: #ED7A39;
}
.g28_1{
fill: #FCC051;
}
.g29_1{
fill: #B08133;
}


]]></style>
  </defs>
  <path
     d="m 371.51519,34.06498 c -1.1,-2.7 -6.8,-1 -8.5,0 -0.5,0.3 -1,0.6 -1.5,1.1 -0.4,-4.9 -3.6,-10 -9,-8.9 -8.2,1.6 -2.9,10.1 -0.7,12.9 -0.1,0 -0.2,0 -0.2,0 -1.5,-0.8 -2.6,-2 -3.7,-3.4 -0.6,-0.7 -0.8,-1.6 -1.3,-2.3 -0.2,-0.3 -0.5,-0.7 -0.8,-0.4 1.2,2.6 2.3,4.4 4.9,6.2 q -0.1,0 -0.2,0.1 c 0,0 0,0.1 0,0.1 -0.5,-0.1 -1.1,-0.1 -1.4,-0.2 -1.1,0 -2.5,0.1 -3.6,0.4 -0.5,0.1 -3.1,1.2 -2,2 0.6,-0.3 0.9,-0.8 1.5,-1 0.9,-0.4 1.8,-0.5 2.8,-0.6 0.9,-0.1 1.9,-0.1 2.8,-0.2 q 0.1,0 0.2,0 c 1.1,0.9 5.2,1.8 5.7,2.1 1.8,1 8.9,2.6 9.2,1.1 0,-0.4 -0.9,-0.9 -2.3,-1.4 1.8,-0.4 3.3,-1 4.1,-1.5 1.7,-0.9 4.8,-4 4,-6.1 z"
     class="g3_1"
     id="path10367"
     inkscape:connector-curvature="0"
     style="fill:#ef7a39" />
  <path
     d="m 220.74072,82.33699 c -0.6,1.3 -1.8,9.1 -0.5,10.3 4.5,3.9 8.1,6.3 12.8,9.8 5.9,4.3 17.7,10.8 21.1,17.6 2.1,4.2 6.3,6.2 4.5,10.7 -2.3,5.8 -7.1,1.5 -9.6,-1.6 -3.2,-3.9 -6.9,-5.9 -11.4,-7.9 -2.8,-1.2 -5.9,-2.1 -8.7,-3.5 -2.4,-1.3 -6,-2.5 -7.5,-5.1 z"
     class="g26_1"
     id="path12147"
     inkscape:connector-curvature="0"
     style="fill:#ebe9d4" />
  <path
     d="m 175.34072,85.23699 c -1.3,0 -3,10.8 -3.1,12.4 -0.6,7.2 -0.5,14 -3.1,20.9 -5.2,14 -18,19.3 -31,23.8 -6.1,2.1 -12.7,2.3 -18.7,4.5 -4.6,1.6 -7.2,4.5 -9.9,8.3 -2.2,3.1 -5.8,5.4 -9.3,7.1 -1.4,0.7 -4.7,1.7 -3.3,4.1 1.5,2.4 4.9,-0.1 6.8,0.3 3.6,0.7 1.5,3.9 2,6.2 2.6,0 4.7,0.5 6.3,2.8 1.4,2.3 1.8,5.2 5.1,5.4 3.3,0.2 6.3,-3.5 8.8,0.3 1.1,1.8 0.7,4 1.7,5.8 4.7,8.5 15.7,2.7 20.2,-3.1 2.9,-3.8 4.7,-8 8,-11.6 4.3,-4.6 9.4,-7.8 14.2,-11.8 4.7,-4 10.2,-8.7 13.5,-13.9 3.1,-4.8 14.3,-28.8 12.7,-34.7 z"
     class="g20_1"
     id="path12149"
     inkscape:connector-curvature="0"
     style="fill:#fbfbe0" />
  <path
     d="m 300.64072,278.73699 c 7.2,6.5 17.6,7.8 27.3,7.8 9.6,0.1 19.6,-0.7 28.6,2.7 1.9,0.7 3.8,1.7 4.7,3.5 0.9,1.5 0.8,3.4 0.7,5.2 -0.4,8.2 -1.2,16.6 -4.9,23.9 -0.9,1.7 -1.9,3.3 -2,5.2 -0.1,3.1 2.1,6.8 -0.1,9 -1.8,1.7 -4.8,0.6 -7.2,1.1 -2.3,0.5 -4,2.6 -4.7,4.9 -0.7,2.3 -0.4,4.7 -0.1,7 0.8,5.2 2.5,10.3 4.8,15 1.2,0.4 2.3,-0.6 3.2,-1.5 3.5,-3.9 6.5,-8.2 8.8,-12.9 1.5,-3 2.7,-6.3 4.7,-9 2.6,-3.4 6.3,-5.9 8,-9.8 1.1,-2.7 1.1,-5.7 1,-8.6 0,-5.1 -0.1,-10.2 -0.2,-15.3 0,-3.2 0,-6.4 0.6,-9.5 0.6,-2.9 1.8,-5.7 1.6,-8.6 -0.1,-2.6 -1.4,-5.1 -2.6,-7.4 -1.6,-3.2 -3.3,-6.4 -5.9,-8.7 -2.4,-2.1 -5.4,-3.3 -8.3,-4.5 -10.1,-4.2 -20,-9.1 -29.6,-14.6 -0.7,-0.4 -1.7,-0.9 -2.5,-0.4 z"
     class="g11_1"
     id="path12151"
     inkscape:connector-curvature="0"
     style="fill:#c45d39" />
  <path
     d="m 318.34072,79.83699 c -0.7,-2 -1.3,-3.9 -2,-5.9 -0.6,-1.9 -1.3,-3.9 -1.3,-5.9 0,-2.3 0.7,-4.5 1.5,-6.7 0.2,-0.6 0.6,-1.3 1.2,-1.2 3.9,7.3 12.7,11.5 15.5,19.3 z"
     class="g11_1"
     id="path12153"
     inkscape:connector-curvature="0"
     style="fill:#c45d39" />
  <path
     d="m 124.64072,273.43699 c 6.4,12 17.6,31.5 16.4,45.1 -0.9,10.5 16.9,16.5 19.6,19.3 10.3,10.5 17.1,24.4 19,39 0.3,2.4 0.6,5.1 2.6,6.5 1,0.8 2.4,1 3.7,1.1 4.9,0.5 10.1,-0.6 14.4,-3.2 0.5,-0.3 1.1,-0.7 1.3,-1.3 0.2,-0.5 0,-1.1 -0.2,-1.6 -3.3,-10 -11.3,-17.6 -16.6,-26.7 -3,-5.2 -5.2,-10.9 -6.8,-16.7 -1.7,-5.9 -2.9,-11.9 -3.2,-18 -0.2,-6.6 -0.4,-13.4 1.6,-19.6 4,-12.7 18.4,-17.4 20.5,-23.9 4.6,-14 18.6,-22.8 18.1,-37.5 z"
     class="g11_1"
     id="path12155"
     inkscape:connector-curvature="0"
     style="fill:#c45d39" />
  <path
     d="m 127.54072,194.13699 c -6.4,-3.9 -14.9,-1.5 -21.2,2.7 -6.2,4.2 -11.2,10 -17.5,14.1 -8,5.2 -17.7,7.2 -25.5,12.5 -12.7,8.7 -19.2,25.2 -33.1,31.7 -7.3,3.3 -16,3.6 -22.4,8.5 -7.1,5.3 -9.5,15.6 -6.7,24 2.8,8.5 10,15 18.3,18.3 8.2,3.3 17.4,3.8 26.2,2.8 2.8,-0.4 5.7,-0.8 8.2,-2.2 3.9,-2.2 6.4,-6.2 9.5,-9.3 7.8,-7.6 20.5,-9.5 30.2,-4.6 -1.8,-4.6 -6.2,-7.9 -11,-9.2 -4.8,-1.3 -9.9,-0.7 -14.6,0.8 -4,1.3 -7.8,3.3 -12,3.6 -1.6,0.2 -3.3,0.1 -4.7,-0.7 -3.2,-1.6 -4.3,-5.8 -3.2,-9.1 1.2,-3.3 4,-5.8 7.1,-7.4 2.5,-1.3 5.3,-2.3 7.1,-4.4 0.9,-1.2 1.5,-2.5 2.1,-3.8 3.9,-8.9 8.3,-17.8 15.1,-24.6 4.7,-4.7 10.3,-8.3 15.3,-12.7 5,-4.3 9.5,-9.7 10.7,-16.2 z"
     class="g11_1"
     id="path12157"
     inkscape:connector-curvature="0"
     style="fill:#c45d39" />
  <path
     d="m 317.44072,77.73699 c 0.3,-1.3 1.4,-2.4 2.5,-3.2 3,-2 6.8,-2.2 10.4,-2.9 3.5,-0.7 7.4,-2.2 8.8,-5.5 0.2,1.9 -0.4,3.8 -1.5,5.4 2.2,0.7 4.7,0.9 7,0.5 0.8,-0.1 1.6,-0.4 2.4,-0.2 2.5,0.4 3.5,3.9 6,4.8 -2.4,-0.6 -5,-1.1 -7.2,0 -1,0.6 -1.8,1.5 -2.7,2.2 -2.7,2.2 -6.3,2.9 -9.7,3.5 z"
     class="g11_1"
     id="path12159"
     inkscape:connector-curvature="0"
     style="fill:#c45d39" />
  <path
     d="m 314.74072,81.23699 c -3.5,-1.5 -7.7,0.3 -10.4,2.9 -2.8,2.7 -4.6,6.2 -7,9.1 -2.2,2.8 -5,5.1 -8,6.8 -2.8,1.6 -6,2.9 -7.7,5.6 -1,1.7 -1.2,3.7 -1.6,5.6 -1.7,8.4 -7.2,16 -14.6,20.3 1.6,0.9 3.8,0.7 5.2,-0.5 -0.7,3.5 -3.4,6.6 -6.8,7.7 -1.9,0.7 -4.1,0.8 -5.7,2 -1.9,1.5 -2.3,4.1 -3.2,6.3 -1.6,4.2 -5.1,7.6 -9.4,9 3.3,0.2 6.5,-0.1 9.6,-1 0.5,1.9 -1,3.8 -2.6,5 -1.7,1.2 -3.6,2 -5,3.4 2,0.9 4.4,0.5 6.5,0.1 3.3,-0.5 6.5,-1.1 9.4,-2.7 2,-1.1 3.7,-2.6 5.4,-4.2 19.1,-18.8 26.3,-47.3 45.7,-65.9 z"
     class="g11_1"
     id="path12161"
     inkscape:connector-curvature="0"
     style="fill:#c45d39" />
  <path
     d="m 399.94072,105.73699 c -6.6,-2.8 -40.4,-16.9 -48.9,-21.8 -5.3,-3.1 -14.9,-7.7 -20.9,-8.8 -12.1,-2 -21.4,10 -27.7,20.5 -10.4,17.3 -20.7,34.5 -31,51.8 -3.7,6.1 -10.3,14.7 -34.9,20.1 -54.6,12.1 -110.2,10.7 -130.7,30.8 -7.8,7.6 -12.2,18 -16.3,28.1 -4.6,11.5 -8.6,23.6 -8.1,36 0.4,12.5 6.2,25.3 17,31.3 9.8,5.5 21.8,4.6 32.7,2.2 10.8,-2.5 21.5,-6.4 32.7,-6.7 16.5,-0.4 32.1,7.3 48.4,9.1 11.9,1.3 23.9,-0.4 35.6,-2.7 13.6,-2.6 27.1,-5.9 40.4,-9.5 9,-2.4 18,-5 25.9,-9.9 21.3,-13.3 30.9,-45.4 24.9,-62.3 -6,-16.9 -2,-73.2 4.3,-79.2 24.1,7.2 16.9,-7.5 38,-1.1 6.1,0.6 2.5,6.5 9.6,4.9 6.6,-1.4 10.4,-6.6 10.6,-7.6 0.5,-2.3 -10.6,-4.2 -9.8,-6.3 1,-2.6 7.4,3.2 12.6,1 3.1,-1.3 2.8,-8.1 4.1,-10.8 3,-6.4 -1.9,-6.3 -8.5,-9.1 z"
     class="g27_1"
     id="path12163"
     inkscape:connector-curvature="0"
     style="fill:#ed7a39" />
  <path
     d="m 284.74072,255.73699 c 3.8,7.9 12.5,13.5 20.3,16.6 8.2,3.4 16.5,6.6 24.7,9.7 5.2,2 9.1,1.1 12.9,5.7 2.8,3.2 4.4,8 4.5,12.4 0,8.1 -9.1,15 -12.9,21.6 -2.6,4.4 -5.2,9.2 -8,13.4 -3.5,5.3 -11,5.7 -16.8,5.8 -8.2,0.2 -15.9,3.4 -24.1,3.7 -4.8,0.1 -7.9,0.6 -5.5,-4.7 2.3,-5 5.1,-15.4 9.5,-18.9 3.2,-2.6 8.6,-2.3 11.4,0.6 1.6,1.6 1.9,4.7 3.9,6 5.3,3.5 17.1,-9.3 20.2,-12.2 3.6,-3.4 8.5,-9.1 5.9,-14.6 -1.6,-3.4 -4.8,-4 -8,-3.7 -5.1,0.5 -10.2,0.7 -15.3,1.1 -12.6,1.2 -24.9,0.1 -37.5,0.1 -13.7,0 -22.2,-15.5 -23.9,-27.5 z"
     class="g27_1"
     id="path12165"
     inkscape:connector-curvature="0"
     style="fill:#ed7a39" />
  <path
     d="m 328.64072,78.43699 c -4.6,-5.1 -9.7,-9.6 -15.4,-13.5 -3.1,-2.1 -10.1,-5.9 -10.5,-4.3 -0.3,1.6 -0.1,3.3 0.2,4.9 1.7,8.8 6.9,16.9 14.4,21.9 z"
     class="g27_1"
     id="path12167"
     inkscape:connector-curvature="0"
     style="fill:#ed7a39" />
  <path
     d="m 179.64072,246.93699 c 2.7,20.1 -4.3,41.3 -18.4,55.9 -6.8,7 -15,12.4 -22.4,18.9 -7.3,6.5 -13.9,14.4 -16,23.9 -0.6,3 -0.8,6.1 -0.1,9 2.2,9.1 11.6,14.1 18.4,20.5 6.3,5.9 12.7,10.4 14.4,18.8 0.8,3.4 6,9.6 3.2,11.6 -1.3,0.9 -10.1,2.7 -11.6,2.9 -3.3,0.4 -4.2,0.9 -9.9,0.8 -4.5,-0.1 0,-6.2 -0.6,-9.2 -0.4,-2.2 -1.1,-4.5 -2,-6.7 -2,-5.2 -5.3,-9.9 -9.5,-13.7 -6.8,-6 -15.5,-9.2 -23.1,-14 -7.6,-4.8 -14.7,-12.3 -14.6,-21.3 0,-7.7 5,-14.3 6.6,-21.8 3.4,-15.6 -8.5,-30.2 -11.2,-45.9 -2.6,-15 3.3,-30 9,-44.1 z"
     class="g27_1"
     id="path12169"
     inkscape:connector-curvature="0"
     style="fill:#ed7a39" />
  <path
     d="m 315.64072,180.93699 c -10.9,0.1 -21.7,-2.9 -30.7,-8.4 -6.9,-4.2 -12.7,-9.7 -18.3,-15.1 l -10,-9.4 c -2,-1.9 -4.1,-4 -5.9,-6.3 -2.3,-3.1 -4,-6.8 -4.8,-10.6 -0.8,-3.3 -0.5,-5.9 0.9,-7.8 1,-1.6 2.9,-2.7 4.9,-2.7 1.7,-0.1 3.2,0.6 4.1,1.9 l -3.6,2.7 c -0.1,0 -0.2,-0.1 -0.4,-0.1 -0.5,0.1 -1,0.3 -1.2,0.7 -0.6,0.9 -0.7,2.3 -0.3,4.3 0.7,3.2 2.1,6.2 4.1,8.8 1.5,2.1 3.5,4 5.4,5.8 l 9.9,9.4 c 5.5,5.2 11.1,10.6 17.6,14.5 9.1,5.6 20.3,8.3 31.3,7.7 10.9,-0.6 21.5,-4.2 30.8,-10.5 6,-4.1 10.4,-8.6 13,-13.5 1,-1.6 2.1,-2.9 3.3,-4.2 3.1,-3.5 6.1,-6.9 3.7,-18.5 l 4.5,-0.9 c 2.8,13.8 -1.4,18.6 -4.8,22.4 -1,1.2 -2,2.2 -2.7,3.4 -3,5.6 -7.9,10.6 -14.4,15.1 -10,6.7 -21.5,10.6 -33.1,11.3 -1.1,0 -2.2,0 -3.3,0 z"
     class="g11_1"
     id="path12171"
     inkscape:connector-curvature="0"
     style="fill:#c45d39" />
  <path
     d="m 288.94072,200.43699 c -6.8,-8.1 -15.3,-14.4 -23.9,-20.5 -6.8,-4.8 -14,-7.8 -21.6,-11.1 -5.4,-2.4 -12.6,-3.9 -17,-8.2 -4.2,-4.1 -4.5,-9.7 -6.5,-14.9 l -33.1,3.8 c -0.5,3.3 -1.8,6.5 -2,9.9 -0.2,5.5 1.7,11 3.7,16 2.6,6.4 8.4,10.9 14.6,13.6 7.1,3.1 14.5,5.2 21.9,7.5 8.2,2.7 16.3,6.2 24.1,9.9 8.7,4 16.2,10.2 22.3,17.5 20.6,31.3 -14.6,71.9 -17.8,79.7 -1.9,2.4 -5.4,8.4 -4.2,10.7 2.1,4.1 10.5,10.5 14.3,13.2 3.6,2.7 6.7,6.7 10.8,8.5 8.3,3.7 3,-5.3 1.1,-8.4 -2.7,-4.2 -8.7,-11.7 -10,-17 1.1,-1.7 2.2,-3.4 3.4,-5.1 2.4,-3.5 4.3,-7.4 6.6,-11 3.7,-5.8 8.1,-11 11.7,-16.9 7.4,-12.2 14.1,-29 13,-43.6 -0.9,-11.3 -4,-24.7 -11.4,-33.6 z"
     class="g28_1"
     id="path12173"
     inkscape:connector-curvature="0"
     style="fill:#fcc051" />
  <path
     d="m 266.24072,283.03699 c -5.6,10 -11.4,17.6 -12.6,20.6 -1.9,2.4 -5.4,8.4 -4.2,10.7 2.1,4.1 10.5,10.5 14.3,13.2 3.6,2.7 6.7,6.7 10.8,8.5 8.3,3.7 3,-5.3 1.1,-8.4 -2.7,-4.2 -8.7,-11.7 -10,-17 1.1,-1.7 2.2,-3.4 3.4,-5.1 2.4,-3.5 4.3,-7.4 6.6,-11 0.8,-1.2 1.6,-2.4 2.4,-3.5 -3.3,-3.3 -7.6,-6.2 -11.8,-8 z"
     class="g14_1"
     id="path12175"
     inkscape:connector-curvature="0"
     style="fill:#1f8f8f" />
  <path
     d="m 226.54072,90.43699 c -1.6,-2.5 -2.1,-5 -3.2,-7.7 -1.6,-3.7 0.5,-3.4 2.4,-6.4 -2.3,-2.9 -2.9,-5.9 -6.3,-7.7 -2.4,-1.3 -13.5,-9.8 -13.5,-9.8 -1.3,-1.3 -1.3,-2.3 -3,-3 -1.6,1.6 -4.2,4.9 -5.9,6.2 -1.8,1.3 -3.6,1.4 -5.5,2.3 -2.3,0.9 -2.9,4.2 -4.5,6.1 -5.6,6.8 -4.8,17.1 -6.3,25.6 -1.6,9.3 -2.2,17.3 -1.2,26.8 1.1,9.3 5.9,14.5 2.7,24.5 -3.3,9.9 10.2,6.8 16.9,4.8 4.6,-1.3 9.1,-2.2 13.9,-1.5 2.6,0.4 4.2,1.5 6.4,2.8 0.8,0.4 1.4,1.1 2.4,1.1 1.8,-0.1 4,-2.7 4.7,-4.2 1.7,-3.2 0.8,-6.4 0.1,-9.7 -0.8,-4 0.2,-5.9 0.8,-9.7 0.9,-5 2.3,-9.1 4.1,-13.9 3.5,-9.8 0.5,-18.4 -5,-26.6 z"
     class="g14_1"
     id="path12177"
     inkscape:connector-curvature="0"
     style="fill:#1f8f8f" />
  <path
     d="m 260.24072,118.93699 c -4.6,-4.3 -13.8,8.9 -7.9,12.3 4.3,2.4 7.3,3.5 10.8,-2.1 1.2,-2 2.9,-4.3 2.1,-6.6 -0.5,-1.3 -2,-2.9 -3.2,-3.1 z"
     class="g20_1"
     id="path12179"
     inkscape:connector-curvature="0"
     style="fill:#fbfbe0" />
  <path
     d="m 328.64072,78.43699 c -4.6,-5.1 -9.7,-9.6 -15.4,-13.5 -3.1,-2.1 -10.1,-5.9 -10.5,-4.3 -0.3,1.6 -0.1,3.3 0.2,4.9 1.7,8.8 6.9,16.9 14.4,21.9 z"
     class="g27_1"
     id="path12181"
     inkscape:connector-curvature="0"
     style="fill:#ed7a39" />
  <path
     d="m 370.94072,122.73699 -26.5,-6.8 c -2.7,-0.8 -5.6,-1.5 -8.3,-2.6 -5.8,-2.4 -10.6,-6.2 -15.3,-10 l -0.7,-0.5 c -0.6,-0.5 -1.3,-1 -1.9,-1.5 -4.4,-3.4 -8.9,-6.9 -12.9,-13.4 l 3.8,-2.4 c 3.7,5.8 7.6,8.9 11.9,12.2 0.6,0.5 1.3,1 2,1.5 l 0.6,0.6 c 4.5,3.5 9.1,7.2 14.2,9.3 2.5,1 5,1.6 7.7,2.3 l 26.5,6.9 z"
     class="g11_1"
     id="path12183"
     inkscape:connector-curvature="0"
     style="fill:#c45d39" />
  <path
     d="m 369.94072,134.33699 c -1,-7.8 -1.1,-14.1 -0.1,-19.8 0.7,-4.3 2.9,-8 5,-11.5 1.3,-2.1 2.5,-4.3 3.5,-6.5 l 4.2,1.8 c -1.1,2.5 -2.4,4.8 -3.7,7 -2,3.4 -3.9,6.5 -4.5,10 -0.9,5.2 -0.8,11 0.1,18.4 z"
     class="g11_1"
     id="path12185"
     inkscape:connector-curvature="0"
     style="fill:#c45d39" />
  <path
     d="m 187.54072,32.03699 c 6,-7.7 15,-12.9 24.7,-14.4 9.6,-1.5 19.8,0.8 27.9,6.3 3.8,2.6 7.1,5.9 10.4,9.2 1.5,1.4 3,2.9 5,3.5 1.9,0.6 4.4,0.4 5.5,2.1 0.9,1.4 0.1,3.4 -0.9,4.7 -3.7,4.9 -10.1,6.8 -16.1,8.4 -3.8,1 -7.6,2 -11.4,3 0,0 -53.5,12.4 -49.3,-14.3 0.5,-3.1 2.2,-6 4.2,-8.5 z"
     class="g29_1"
     id="path12187"
     inkscape:connector-curvature="0"
     style="fill:#b08133" />
  <path
     d="m 203.74072,46.93699 c 0,2.1 1.8,5.1 2.4,7.3 0.7,2.6 -3.2,3.4 -2.6,6 0.6,3 7.1,5.7 9.7,7.1 1.3,0.8 2.9,2.3 4.2,1.8 0.9,-0.3 1.6,-1.8 2.3,-2.3 1.4,-1.1 3.8,-1.9 5.5,-1.8 2.4,0.1 4,1.6 6.6,0.2 1.9,-1 1.6,-2 1.9,-4 0.3,-2.3 0.8,-5.2 2.3,-7 0.7,-0.7 2.2,0.8 3.1,-0.3 0.9,-1.2 -1.9,-4.9 -1.5,-6.4 1.3,-3.7 0.9,-2.3 1,-3.4 0,0 -25.6,-10 -34.9,2.8 z"
     class="g20_1"
     id="path12189"
     inkscape:connector-curvature="0"
     style="fill:#fbfbe0" />
  <path
     d="m 98.84072,81.73699 c -1.3,-1 -0.6,-0.3 -1.6,-1.8 -1.2,-1.7 -0.1,-4.2 -1,-5.9 -0.6,-1.1 -2.8,-2.5 -4.2,-2.2 -0.9,0.3 -1,1.3 -1.8,1.5 -1.4,0.4 -2.8,-1 -4.2,0.2 -1.6,1.3 -1.1,4.9 -0.5,6.6 1.9,5.9 7.4,8.8 13.2,12.5 z"
     class="g20_1"
     id="path12191"
     inkscape:connector-curvature="0"
     style="fill:#fbfbe0" />
  <path
     d="m 195.74072,65.93699 c -3.8,-2.4 -14.7,2 -18.7,3.6 -11.4,4.5 -21.6,12.8 -33.3,16.6 -15.2,4 -29.6,1.9 -34.6,0.6 -3.5,-0.9 -7.7,-2.5 -10.3,-5 -1.4,-1.2 -7.8,4.3 -4.7,7.7 5.8,6.2 33.7,14.4 41.7,15.1 7.2,0.6 28.2,-0.8 56.3,-13.6 z"
     class="g20_1"
     id="path12193"
     inkscape:connector-curvature="0"
     style="fill:#fbfbe0" />
  <path
     d="m 261.54072,121.33699 q -0.1,0 -0.1,0 c -0.3,0 -0.6,-0.3 -0.6,-0.7 0.2,-2 -0.1,-4 -0.4,-6 l -0.1,-0.3 c -0.7,-4.4 -1.3,-7.8 1.7,-11.7 0.7,-0.9 1.4,-1.7 2,-2.4 2.3,-2.7 4.3,-5.1 5.1,-9 2.6,-12.8 1.4,-26.4 0,-35.6 -1.5,-9.6 -3.4,-21.6 -10.2,-30.5 -5.8,-7.7 -14.5,-12.6 -22.2,-16.3 -10.4,-4.9 -19.5,-5.9 -28.5,-3.2 -9.5,2.9 -17.7,9.2 -25.7,15.2 l -2.3,1.8 c -4.4,3.3 -8.9,6.8 -13.2,10.2 -4.4,3.4 -8.9,7 -13.4,10.4 -8.6,6.5 -18.3,12.1 -30.5,17.6 -1.9,0.9 -3.2,2.1 -4.6,3.4 -0.8,0.7 -1.7,1.5 -2.7,2.3 -3.6,2.6 -7.4,1.6 -11.1,0.7 -6.2,-1.7 -10.2,-1.6 -12.3,0.1 -1.4,1.2 -1.9,3.2 -1.6,6 0.1,0.3 -0.2,0.6 -0.5,0.7 -0.4,0 -0.7,-0.2 -0.7,-0.6 -0.4,-3.2 0.3,-5.6 2,-7 3.2,-2.8 9.2,-1.6 13.5,-0.5 3.5,1 6.8,1.9 10,-0.4 0.9,-0.7 1.8,-1.5 2.6,-2.2 1.4,-1.3 2.8,-2.7 4.9,-3.6 12.1,-5.5 21.7,-11.1 30.2,-17.5 4.5,-3.4 9.1,-7 13.4,-10.4 4.3,-3.4 8.8,-6.9 13.2,-10.2 l 2.3,-1.8 c 8.1,-6.1 16.4,-12.5 26.1,-15.4 9.4,-2.8 18.7,-1.8 29.4,3.3 7.9,3.8 16.8,8.7 22.8,16.6 6.9,9.2 8.8,21.3 10.3,31.1 1.5,9.3 2.7,23.1 0,36.1 -0.8,4.2 -3,6.8 -5.3,9.5 -0.7,0.7 -1.3,1.5 -2,2.4 -2.7,3.4 -2.2,6.5 -1.5,10.7 l 0.1,0.3 c 0.4,2.1 0.7,4.2 0.5,6.3 0,0.4 -0.3,0.6 -0.6,0.6 z"
     class="g27_1"
     id="path12195"
     inkscape:connector-curvature="0"
     style="fill:#ed7a39" />
  <path
     d="m 261.54072,122.63699 c -0.1,0 -0.2,0 -0.2,0 -1.1,-0.1 -1.9,-1.1 -1.8,-2.1 0.2,-1.8 -0.1,-3.8 -0.4,-5.7 l -0.1,-0.3 c -0.8,-4.5 -1.4,-8.4 2,-12.7 0.7,-0.9 1.4,-1.7 2,-2.5 2.3,-2.7 4.1,-4.8 4.8,-8.3 2.6,-12.7 1.4,-26.2 0,-35.2 -1.5,-9.5 -3.4,-21.3 -9.9,-30 -5.6,-7.4 -14.2,-12.2 -21.8,-15.8 -10.1,-4.8 -18.8,-5.8 -27.6,-3.1 -9.2,2.8 -17.3,9 -25.2,15 l -2.3,1.7 c -4.4,3.4 -8.9,6.9 -13.2,10.2 -4.4,3.5 -8.9,7 -13.4,10.4 -8.7,6.6 -18.5,12.3 -30.8,17.8 -1.6,0.8 -2.8,1.9 -4.2,3.1 -0.9,0.9 -1.8,1.7 -2.8,2.4 -4.2,3.1 -8.4,1.9 -12.2,0.9 -5.7,-1.5 -9.5,-1.5 -11.2,-0.1 -1,0.9 -1.3,2.5 -1.1,4.8 0.1,1.1 -0.6,2 -1.7,2.2 -0.5,0 -1,-0.1 -1.4,-0.4 -0.4,-0.3 -0.7,-0.8 -0.7,-1.3 -0.5,-3.7 0.4,-6.4 2.4,-8.2 3.7,-3.2 10.2,-1.9 14.7,-0.7 3.3,0.9 6.2,1.7 8.9,-0.3 0.9,-0.7 1.7,-1.4 2.5,-2.1 1.4,-1.3 3,-2.8 5.2,-3.8 12.1,-5.5 21.6,-11 30.1,-17.4 4.4,-3.3 8.8,-6.8 13.2,-10.2 l 0.1,-0.1 c 4.1,-3.2 8.7,-6.9 13.2,-10.3 l 2.3,-1.7 c 8.2,-6.2 16.6,-12.6 26.5,-15.6 9.7,-3 19.4,-1.9 30.4,3.3 8,3.9 17.1,8.9 23.2,17 7.1,9.5 9.1,21.8 10.6,31.7 1.5,9.4 2.7,23.3 0,36.6 -0.9,4.5 -3.3,7.3 -5.6,10 l -0.1,0.1 c -0.6,0.7 -1.3,1.5 -1.9,2.3 -2.3,3 -1.9,5.5 -1.2,9.6 l 0.1,0.4 c 0.4,2.1 0.7,4.3 0.5,6.7 -0.1,1 -0.9,1.7 -1.9,1.7 z"
     class="g27_1"
     id="path12197"
     inkscape:connector-curvature="0"
     style="fill:#ed7a39" />
  <path
     d="m 268.94072,20.03699 -0.4,-0.8 c -5.9,-12.8 -17.2,-19.5 -29.4,-17.6 -8.3,1.2 -16.6,3.9 -24,7.5 -5.7,2.8 -10.9,5.3 -17,6.5 -15.1,3 -29.9,2.8 -43.7,2.4 -5.9,-0.1 -11.7,-1.1 -17.4,-2.1 -6.4,-1.1 -13,-2.2 -19.7,-2.2 -15.9,0.1 -30,4.4 -41.7,12.9 -12.6,9.1 -26.1,24.6 -26.3,40.9 -0.1,6.6 4,12.8 6.5,15.9 3.6,4.4 7.5,5.7 13.2,6.5 0.6,0.1 3,0.4 6,0.4 4.5,0 10.3,0.1 13.8,-3.1 -0.8,-0.7 -1.3,-1 -1.5,-1.4 -4.3,4.1 -13,3.6 -18.2,2.9 -5.3,-0.8 -9,-2 -12.3,-6.1 -2.4,-3 -6.3,-8.9 -6.2,-15.1 0.2,-15.8 13.4,-30.9 25.7,-39.9 11.5,-8.3 25.3,-12.6 41,-12.7 6.6,0 13.1,1.1 19.5,2.2 5.7,1 11.6,2 17.5,2.2 14,0.4 28.8,0.5 44.1,-2.5 6.2,-1.2 11.5,-3.7 17.3,-6.6 7.2,-3.6 15.4,-6.1 23.6,-7.4 11.6,-1.8 22.4,4.7 28,17 l 0.4,0.7 c 2.3,5.1 4.5,9.8 4.5,15.3 0.1,3.6 -0.6,6.4 -1.5,10 -0.1,0.6 -0.4,1.4 -0.6,2.2 -0.6,2 -1.3,4.2 -1.2,6 0,0.3 0.3,0.6 0.6,0.6 0.4,0 0.7,-0.3 0.6,-0.7 0,-1.5 0.6,-3.7 1.2,-5.5 0.3,-0.9 0.5,-1.6 0.7,-2.3 0.8,-3.5 1.5,-6.5 1.5,-10.3 0,-5.8 -2.3,-10.7 -4.6,-15.8 z"
     class="g27_1"
     id="path12199"
     inkscape:connector-curvature="0"
     style="fill:#ed7a39" />
  <path
     d="m 75.54072,91.63699 h -0.5 c -3.1,0 -5.6,-0.3 -6.2,-0.4 -5.8,-0.8 -10.2,-2.3 -14,-7 -2.6,-3.2 -6.9,-9.7 -6.8,-16.7 0.2,-16.8 14,-32.7 26.8,-41.9 12,-8.7 26.3,-13.2 42.5,-13.2 6.5,0 12.9,1 19.9,2.2 5.6,1 11.5,2 17.2,2.1 13.8,0.4 28.5,0.6 43.5,-2.4 5.9,-1.2 11,-3.6 16.7,-6.4 7.4,-3.7 15.8,-6.3 24.3,-7.6 12.8,-2 24.6,5 30.8,18.4 l 0.3,0.8 c 2.5,5.2 4.8,10.2 4.8,16.3 0,3.9 -0.7,7 -1.6,10.6 -0.1,0.7 -0.4,1.5 -0.6,2.3 -0.6,1.7 -1.2,3.9 -1.2,5.1 0.1,0.6 -0.1,1.1 -0.5,1.4 -0.3,0.4 -0.7,0.6 -1.2,0.7 -0.5,0 -1,-0.1 -1.4,-0.4 -0.4,-0.4 -0.7,-0.9 -0.7,-1.5 -0.1,-1.9 0.6,-4.3 1.2,-6.4 0.3,-0.8 0.5,-1.5 0.7,-2.1 0.8,-3.5 1.5,-6.2 1.4,-9.7 0,-5.2 -2.1,-9.8 -4.4,-14.7 l -0.3,-0.8 c -5.4,-11.7 -15.7,-17.9 -26.7,-16.2 -8.1,1.2 -16.1,3.8 -23.2,7.3 -5.9,2.9 -11.3,5.4 -17.7,6.7 -15.3,3 -30.3,2.9 -44.3,2.5 -6,-0.2 -12,-1.2 -17.7,-2.2 -6,-1 -12.7,-2.1 -19.3,-2.1 -15.4,0 -28.9,4.2 -40.2,12.4 -12.1,8.7 -25,23.5 -25.2,38.9 -0.1,5.7 3.7,11.4 5.9,14.2 3,3.8 6.4,4.9 11.5,5.6 4.7,0.6 13.1,1.2 17.1,-2.5 l 1,-1 0.9,1.1 c 0.1,0.1 0.3,0.3 0.4,0.4 0.3,0.2 0.6,0.5 1,0.8 l 1,1 -1,0.9 c -3.7,3.5 -9.5,3.5 -14.2,3.5 z"
     class="g27_1"
     id="path12201"
     inkscape:connector-curvature="0"
     style="fill:#ed7a39" />
  <path
     d="m 229.34072,55.43699 c -0.7,0.3 -1.3,0.8 -2.1,1.1 -0.6,0.2 -1.3,0.5 -1.8,1 0.5,0.2 1.6,0.1 2.2,0.2 0.9,0 1.8,-0.1 2.7,-0.1 1,0 2.2,0.1 3.2,0.3 0.3,0 0.5,0.1 0.8,0.1 0.3,-1.1 0.6,-2.2 1.2,-3.1 -0.8,-0.3 -2.4,-0.3 -2.9,-0.2 -1.1,0.1 -2.2,0.2 -3.3,0.7 z"
     class="g29_1"
     id="path12203"
     inkscape:connector-curvature="0"
     style="fill:#b08133" />
  <path
     d="m 265.34072,124.63699 c 0.1,-0.7 0.1,-1.4 -0.1,-2.1 -0.5,-1.3 -2,-2.9 -3.2,-3.1 l -1.8,-0.5 c -2,-1.8 -4.8,-0.4 -6.9,2 4,1 8,2.2 12,3.7 z"
     class="g20_1"
     id="path12205"
     inkscape:connector-curvature="0"
     style="fill:#fbfbe0" />
  <path
     d="m 196.44072,65.53699 c -3.9,-2.4 -15.1,2.1 -19.2,3.7 -5.7,2.2 -11.2,5.5 -16.6,8.6 1.5,4.5 4.8,16.2 6.6,22.7 7.6,-2.1 16.1,-5.2 25.4,-9.4 z"
     class="g14_1"
     id="path12207"
     inkscape:connector-curvature="0"
     style="fill:#1f8f8f" />
  <path
     d="m 234.74072,175.53699 c -1.2,-0.9 -3.3,-1.2 -4.7,-2 -3.9,-2.1 -7.6,-5.4 -10.9,-8.3 -6.2,-5.6 -8.8,-17.1 -8,-25.1 2,-20.1 7.2,-39.8 -1.3,-59.3 -2.4,-5.7 -5.8,-10.7 -8.9,-15.9 -1.6,-2.7 -2.4,-4.5 -5.5,-5 -3.3,-0.6 -20.2,7.2 -17.9,9.5 5.2,4.2 9.3,14.3 11,18.6 3.6,9 4.5,18.9 4.6,28.5 0.1,10 -1.6,19.9 -3.1,29.7 -1.7,11.5 -5.4,21.5 -3.5,33.4 1.4,9.8 4.9,16.8 11.3,24.2 1,1.2 4,6 5.5,3.5 1.3,-2 -1.9,-2.6 1.4,-3.9 1.3,-0.6 4.2,0.2 5.3,-0.6 1.4,-0.9 0.6,-2.3 1.1,-3.8 1.3,-4 4.5,-2 7.7,-3.7 4.2,-2.2 -0.7,-5.3 2.7,-8.2 3.1,-2.5 8.4,-1.5 11.8,-3.3 3.3,-1.7 4,-6.2 1.4,-8.3 z"
     class="g20_1"
     id="path12209"
     inkscape:connector-curvature="0"
     style="fill:#fbfbe0" />
</svg>
