<?xml version="1.0" encoding="UTF-8" standalone="no"?>
<!-- Page 4 -->

<svg
   xmlns:dc="http://purl.org/dc/elements/1.1/"
   xmlns:cc="http://creativecommons.org/ns#"
   xmlns:rdf="http://www.w3.org/1999/02/22-rdf-syntax-ns#"
   xmlns:svg="http://www.w3.org/2000/svg"
   xmlns="http://www.w3.org/2000/svg"
   xmlns:sodipodi="http://sodipodi.sourceforge.net/DTD/sodipodi-0.dtd"
   xmlns:inkscape="http://www.inkscape.org/namespaces/inkscape"
   x="0"
   y="0"
   width="758.12372"
   height="429.76804"
   viewBox="0 0 758.12371 429.76804"
   version="1.1"
   style="display:block"
   id="svg5867"
   sodipodi:docname="cover.svg"
   inkscape:version="0.92.2 (5c3e80d, 2017-08-06)">
  <metadata
     id="metadata5871">
    <rdf:RDF>
      <cc:Work
         rdf:about="">
        <dc:format>image/svg+xml</dc:format>
        <dc:type
           rdf:resource="http://purl.org/dc/dcmitype/StillImage" />
        <dc:title></dc:title>
      </cc:Work>
    </rdf:RDF>
  </metadata>
  <sodipodi:namedview
     pagecolor="#ffffff"
     bordercolor="#666666"
     borderopacity="1"
     objecttolerance="10"
     gridtolerance="10"
     guidetolerance="10"
     inkscape:pageopacity="0"
     inkscape:pageshadow="2"
     inkscape:window-width="1360"
     inkscape:window-height="705"
     id="namedview5869"
     showgrid="false"
     inkscape:zoom="0.54427719"
     inkscape:cx="587.7392"
     inkscape:cy="338.38441"
     inkscape:window-x="-8"
     inkscape:window-y="32"
     inkscape:window-maximized="1"
     inkscape:current-layer="svg5867"
     fit-margin-top="0"
     fit-margin-left="0"
     fit-margin-right="0"
     fit-margin-bottom="0" />
  <defs
     id="defs5731">
    <clipPath
       id="c0_4">
      <path
         d="M 0,1126 V 0 h 1559.1 v 1126 z"
         id="path5723"
         inkscape:connector-curvature="0" />
    </clipPath>
    <clipPath
       id="c1_4">
      <path
         d="m 735.1,724 v 0 c 2.6,-6.3 10.8,-12 15.9,-17.2 15.7,-16 31.9,-31.6 47.8,-47.5 13.6,-13.6 28.4,-26.1 42.4,-39.4 7.1,-6.7 18.2,-16.1 28.2,-19.8 1.5,-0.6 13.2,-0.8 32,-0.8 40.7,0 114.6,1 188.6,2.1 73.9,1 147.9,2 188.8,2 12.2,0 21.4,-0.1 26.8,-0.3 33.5,-1.3 67.1,-2.8 100.7,-2.8 9.5,0 19.1,0.2 28.6,0.4 9.2,0.3 18.4,0.4 27.5,0.4 29.2,0 58.3,-1.1 87.5,-1.7 3.3,-0.1 6.3,-0.3 9.2,-0.4 v 116.2 c -15.4,-0.1 -30.7,-0.3 -46.1,-0.6 -21.2,-0.3 -42.4,-0.6 -63.6,-0.6 -14.2,0 -28.4,0.1 -42.5,0.5 -94.1,2.5 -567.1,5.2 -617.5,5.2 -2.4,0 -3.9,0 -4.3,0 -0.2,0 -0.4,0 -0.6,0 -2.4,0 -5,0.4 -7.6,0.8 -2.5,0.5 -5.1,0.9 -7.5,0.9 -1.3,0 -2.7,-0.1 -3.9,-0.5 z"
         id="path5726"
         inkscape:connector-curvature="0" />
    </clipPath>
    <style
       type="text/css"
       id="style5729"><![CDATA[

.g0_4{
fill: #82C553;
}
.g1_4{
fill: #219090;
}
.g2_4{
fill: #FCC151;
}
.g3_4{
fill: #ACD36C;
}
.g4_4{
fill: #EF7A39;
}
.g5_4{
fill: #145A62;
}
.g6_4{
fill: #6AC9CE;
}
.g7_4{
fill: #FCFBE0;
}
.g8_4{
fill: #105275;
}


]]></style>
  </defs>
  <g
     clip-path="url(#c0_4)"
     id="g5755"
     transform="matrix(0.48625728,0,0,0.48625728,0,-117.75766)"
     style="stroke-width:2.05652452">
    <path
       d="m -414,1209.8 c -7.5,194.2 -18.7,388.3 -25.1,582.6 91.5,-7.6 183,-16.6 274.2,-27.5 493.9,-71.1 983.8,-164.1 1481.7,-208.2 140.2,-12.4 279.8,-30.9 419.9,-44.1 -3.8,-359.6 -7,-719.2 -20.1,-1078.6 H 92.4 c 17.7,28 15.5,62.9 15.4,94.7 -0.1,19.8 -20.8,38.2 -40.9,31.1 -24.4,-8.7 -39.4,-23.6 -56,-42.6 -10.8,-12.4 -22.9,-20.6 -39.9,-22 -46.3,-3.8 -91.8,8.6 -138,9.3 -70.5,1 -141,-0.6 -211.2,-5.3 -18.4,236.7 -26.6,473.2 -35.8,710.6 z"
       class="g0_4"
       id="path5735"
       inkscape:connector-curvature="0"
       style="fill:#82c553;stroke-width:2.05652452" />
    <path
       d="m 1450.1,580.3 c -22,-115.1 -141.5,-213.3 -254.4,-181.9 0,0 -251.4,83 -311.2,77.3 C 824.7,470 752.3,505.9 753,566 c 0.4,35 26,68.8 16.6,102.6 -8.9,31.8 -45.8,47.8 -78.9,48 -58.6,0.2 -110.9,-34.4 -166.2,-53.8 -55.4,-19.4 -129.7,-16.8 -157.6,34.8 -28,51.9 5.9,127.9 -36.2,169.2 -27,26.5 -70.4,22.4 -107.5,30.7 -91.5,20.4 -145.3,130.7 -119.6,221 25.7,90.2 115.1,153.2 208.1,165.2 45.4,5.8 93.3,0.8 133.3,-21.3 40.5,-22.5 69.9,-60.4 106.8,-88.4 36.9,-28 89.8,-45.3 128.8,-20.2 19,12.2 31.3,32.4 48.9,46.5 48.6,39 125.7,19.2 166.7,-27.7 41.1,-46.8 53.7,-111.7 58.8,-173.8 1.3,-16.3 3.4,-34.8 16.6,-44.4 7.2,-5.2 16.4,-6.7 25.3,-7.1 70.1,-3.4 134.5,48 204.4,42.8 56.7,-4.2 103.8,-44.7 140.8,-87.8 76.4,-88.9 130.1,-206.9 108,-322 z"
       class="g1_4"
       id="path5737"
       inkscape:connector-curvature="0"
       style="fill:#219090;stroke-width:2.05652452" />
    <path
       d="m -325.6,401.7 c -7.2,-10.7 -13.2,-22.5 -23.3,-30.5 -5.2,-4.2 -11.2,-7 -17.5,-8.9 -1.3,13.7 -2.5,27.3 -3.8,41 -4.3,48.1 -8.2,96.3 -11.6,144.4 5,0.7 10,1.4 14.9,2.2 45.7,7.7 90.1,22.6 131.2,44 32.7,17 63.7,38.3 99,49.1 49,15.1 107.6,6.4 142.5,-31.2 34.9,-37.5 35.7,-105.4 -5,-136.6 -26.7,-20.5 -63.5,-21.9 -96.9,-17.1 -33.4,4.8 -66.3,14.9 -100.1,14.3 -51.1,-0.8 -101.1,-28.1 -129.4,-70.7 z"
       class="g2_4"
       id="path5739"
       inkscape:connector-curvature="0"
       style="fill:#fcc151;stroke-width:2.05652452" />
    <path
       d="m 533,1324.3 c -14.2,-11.4 -31,-21.1 -39.4,-37.4 -13.7,-26.6 1.4,-60 23.6,-80.2 16.9,-15.2 39.4,-28.9 42.1,-51.5 3.1,-25.2 -21.1,-45.5 -44.9,-54.2 -23.9,-8.6 -50.6,-11.4 -70.8,-26.7 -18.4,-14.1 -28.4,-36.5 -44,-53.7 -23.2,-25.8 -58.6,-38.9 -93.4,-39.3 -34.7,-0.5 -68.9,10.7 -99.4,27.3 -90.4,48.9 -151.7,147.5 -155.4,250.2 l 32.6,30.5 c 19.2,22.4 26.5,54.4 18.9,82.9 -6.7,24.9 -23.4,45.6 -35.4,68.4 -12,22.8 -19,51.6 -5.7,73.7 8.4,13.9 23.4,22.5 38.5,28.6 82.6,32.9 176.9,6 264.4,22.1 32.5,6 64.4,18.1 97.5,17.2 57.9,-1.5 110.9,-46.5 125.1,-102.7 14.3,-56.1 -9.1,-119 -54.3,-155.2 z"
       class="g3_4"
       id="path5741"
       inkscape:connector-curvature="0"
       style="fill:#acd36c;stroke-width:2.05652452" />
    <path
       d="m 757.4,737.9 c -20.1,-15.4 -46.5,-18.7 -71.5,-21.6 -32.7,-3.8 -65.3,-7.5 -98,-11.2 -22.2,-2.6 -44.8,-5.3 -64.8,-15.3 -19.9,-10 -36.8,-29.1 -37.8,-51.4 -1.4,-31 27.5,-55.6 56.9,-65.6 29.5,-10.1 61.6,-11.1 90.3,-23.3 54.9,-23.3 87,-90.3 70.8,-147.7 C 686,340.2 620.9,300.3 557,297.8 c -63.9,-2.5 -125.5,26 -177,63.9 -38.2,28.1 -79.6,63.8 -126.3,55.6 l -77.8,30.2 c -89.2,4.8 -175.9,45 -237.4,109.9 -23,24.3 -43.3,54.1 -44.3,87.5 -1.5,49.5 38,88.9 70.5,126.2 32.5,37.2 61.5,90.3 37.6,133.6 -24.9,45.3 -97.7,56.9 -106.2,107.9 -5.1,31 18.9,60.2 46.9,74.4 28,14.1 59.9,17.7 89.9,26.9 34.3,10.5 66.3,28.5 93.1,52.3 18.2,16.3 34.4,35.4 55.9,47 34,18.3 75.3,14.7 113,7.1 45.5,-9.2 93.4,-26 119.1,-64.6 24.1,-36.1 23.7,-83.8 45.1,-121.6 27.3,-48.3 84.1,-70.9 137.5,-85.7 53.5,-14.8 110.8,-27 151.5,-64.7 40.7,-37.8 53.4,-112.1 9.3,-145.8 z"
       class="g4_4"
       id="path5743"
       inkscape:connector-curvature="0"
       style="fill:#ef7a39;stroke-width:2.05652452" />
    <path
       d="m 356.5,487.9 c 49.1,-42.7 83.3,-43.7 135.6,-3.2 46,35.7 81.7,39.9 141.5,32 76.8,-10.1 131.7,-62.1 212.4,-60.5 80.7,1.6 151.1,26.5 224.3,58.3 63.3,27.6 167.3,76.3 121.7,162.9 -30.3,57.7 -86.8,88.4 -148.9,95.4 -59.4,6.7 -149.8,-3.4 -146,81 3.3,72.9 50.1,115.1 99.7,159 49.6,43.8 97.6,110.3 56,175.3 -34.9,54.5 -96.8,54.8 -153.3,66 -157.8,31.3 -189.8,253 -91.5,362.2 119.7,-16.8 239.6,-32.1 359.9,-45 -9,-20.5 -16.5,-41.9 -5.9,-65.5 36,-80.5 120.5,-44.8 178.2,-19.2 66.7,29.6 140,-4.7 118.9,-85.2 -9.1,-34.7 -38.9,-58.8 -44.6,-94.9 -4.8,-30.5 2.6,-71.3 15.7,-98.7 46.4,-97 205.7,-183.5 301.9,-102.4 -3.4,-250.5 -8.3,-500.9 -18.6,-751.1 -35.3,7.1 -70.3,15.6 -105.7,24.6 -46.5,11.9 -104.6,36.5 -153.3,35.5 -45.9,-1 -66.1,-29.2 -101.9,-52.3 C 1309.3,334.2 1259,324.9 1209.3,315.5 1154.1,305 1098,297.9 1042.4,311 999.9,321 966.1,334 921.2,333.4 836.2,332.2 775.5,312.6 698,281 617.4,248.2 562.6,247.9 480.7,271 c -72.4,20.4 -154.1,29.6 -228.5,16.6 -80.6,-14 -160.7,-61.3 -244.9,-40 -91.2,23.1 -61.5,109 -25.1,169.7 69.2,115.7 270.6,160.9 374.3,70.6 z"
       class="g5_4"
       id="path5745"
       inkscape:connector-curvature="0"
       style="fill:#145a62;stroke-width:2.05652452" />
    <path
       d="m 1496.1,856.3 c 1.6,22.5 -15.8,28.1 -32.2,39.2 -16.9,11.5 -30.6,18.4 -32.1,39.5 -2.1,29.2 21.3,59.1 43.4,75.1 40.6,29.4 109.3,18.2 128.8,75.2 23.4,68.6 -78.6,100.9 -63.2,157.7 13.6,50.3 97.5,63.6 137.8,80.1 20.9,8.6 40.4,21.6 56.5,37.9 -2,-188.2 -4.2,-376.3 -8.2,-564.4 -4.8,-15.2 -4.9,-32 -1.1,-48.6 -2.1,-91 -4.6,-182 -7.7,-272.9 -13.6,-3.2 -27.4,-4.4 -40.6,-3 -34.1,3.6 -65.2,12.5 -74.3,47.9 -7.7,29.6 -0.9,60.8 -10.1,90.3 -21.8,70.3 -94.7,27.3 -144.7,55.7 -63.3,35.9 -34.8,82.9 3.2,128.5 13,15.6 43,41.3 44.5,61.8 z"
       class="g2_4"
       id="path5747"
       inkscape:connector-curvature="0"
       style="fill:#fcc151;stroke-width:2.05652452" />
    <path
       d="m 1694.7,714.7 c -2.6,-8.2 -9.4,-9.8 -15.2,-15.3 -11.9,-11.3 -17.2,-30.9 -9.6,-45.4 7.6,-14.4 20,-22.8 16.8,-41.1 -4.2,-24.4 -28.4,-36.2 -39.2,-56.6 -4.9,-9.1 -6.6,-21.8 -5.7,-32 1,-10.3 8.3,-19.3 8.9,-29.4 1.3,-20.6 -20.8,-23.6 -30.7,-35.7 -8.7,-10.6 -9.2,-26.4 -15.6,-38.4 -5.7,-10.7 -28.6,-16.9 -39.8,-8.7 -6,4.3 -13.3,11.2 -15.7,18.4 -3.8,11.3 4.9,23.2 -1,35.8 -8.2,17.4 -26.8,25.1 -36.1,41.3 -4.2,7.4 -7.7,16.2 -5.9,24.9 1.5,6.7 6.8,12.2 9.4,18.5 6.1,14.4 2.8,27 -7.1,38.6 -12.4,14.6 -23.5,23.2 -25.6,43.4 -1.8,16.6 14.4,29.4 14.2,46.7 -0.1,8.9 -3.7,13.6 -9.4,20.1 -7.9,9 -13,17.8 -15.5,29.7 -13.5,63.2 77.1,86.8 123.1,83.6 24.5,-1.7 54.5,-5.6 73,-23.7 15.1,-14.8 21.9,-29.1 25.5,-49.7 1.4,-8.1 3.7,-16.9 1.2,-25 z"
       class="g3_4"
       id="path5749"
       inkscape:connector-curvature="0"
       style="fill:#acd36c;stroke-width:2.05652452" />
    <path
       d="m -420.9,475.1 c -4,48.3 -7.6,96.6 -10.8,144.8 54.1,21.8 149.2,7 191.5,26.5 54.7,25.3 87.6,87.4 85.3,148.1 -5.5,149.7 -196.2,121.6 -296.2,182.2 -3.5,80.3 -6.7,160.6 -9.8,240.9 1.4,0.7 2.8,1.4 4.3,2.1 79.8,35.4 155.5,-8.7 218.9,71.3 41,51.7 39.5,92.9 -8.3,134 -39.4,33.8 -113.6,94.2 -54.7,147.3 69.7,62.7 204,-1.6 244.2,-69.3 44,-74 45.3,-191.5 152.3,-208.4 49.3,-7.8 98.7,15.1 138.3,-27.9 33.2,-36 11.5,-51.4 8.3,-88.7 l -44.2,-28.2 C 313.4,1164 455.6,884.3 345.3,813.8 270.8,766.1 76.8,853.6 69.6,728.3 65.8,662.8 142.3,625.6 145.7,559.6 150.3,471.1 46.6,414.4 -24.4,391.3 c -93.4,-30.5 -217.8,-35.2 -305,12.1 -21.6,11.7 -60.1,39.1 -91.5,71.7 z"
       class="g0_4"
       id="path5751"
       inkscape:connector-curvature="0"
       style="fill:#82c553;stroke-width:2.05652452" />
  </g>
  <path
     d="m 245.03869,104.10871 c -1.21705,-5.933128 -9.50823,-22.895818 -14.37644,-39.934558 -0.38033,-2.35804 -4.94428,-1.14099 -4.79215,-0.15213 0.98885,3.27083 8.36724,25.40598 13.69185,37.576518 -7.07412,-1.06492 -8.97577,3.87936 -8.97577,5.93313 0,2.12985 1.52132,4.03149 3.42296,4.86822 1.97771,0.83672 4.18362,0.76065 6.16134,0.15213 1.06492,-0.30427 2.12984,-0.76066 2.81443,-1.59738 1.52132,-1.67345 2.51017,-4.71609 2.05378,-6.84593 z"
     class="g1_4"
     id="path5815"
     inkscape:connector-curvature="0"
     style="fill:#219090;stroke-width:1" />
  <path
     d="m 577.59852,85.016192 c 0.53246,-4.64002 -0.91279,-16.65842 -1.29312,-29.89388 1.52132,-2.51017 3.3469,-4.79215 5.85707,-6.2374 0.76066,-0.38033 1.59738,-0.76065 1.97771,-1.44525 0.4564,-0.76066 0.2282,-1.97771 -0.60853,-2.05377 -0.38032,-0.0761 -0.76065,0.0761 -1.06492,0.22819 -2.28197,1.14099 -4.33575,2.51018 -6.31346,4.18362 0,-0.45639 0,-0.83672 0,-1.29312 1.14099,-0.83672 2.20591,-1.67344 3.27083,-2.51017 1.90165,-1.36918 3.80329,-2.81443 5.85707,-3.87936 0.83672,-0.45639 0.60853,-5.3246 -0.76066,-5.09641 -4.33575,0.83673 -8.51937,1.97772 -12.62693,3.49903 l 0.0761,0.15213 c -0.0761,0.0761 -0.15213,0.15214 -0.2282,0.30427 -0.0761,3.42296 0.0761,26.69911 1.44525,40.01063 -6.46559,-3.27083 -9.73643,0.83672 -10.42102,2.81443 -0.60853,2.05378 0.2282,4.33575 1.82558,5.70494 1.52132,1.36918 3.65116,1.97771 5.78101,2.05378 1.06492,0 2.2059,-0.0761 3.19476,-0.6846 1.90165,-1.14098 3.72723,-3.65116 4.03149,-5.85706 z"
     class="g1_4"
     id="path5817"
     inkscape:connector-curvature="0"
     style="fill:#219090;stroke-width:1" />
</svg>
