<?xml version="1.0" standalone="no"?>
<!DOCTYPE svg PUBLIC "-//W3C//DTD SVG 20010904//EN"
 "http://www.w3.org/TR/2001/REC-SVG-20010904/DTD/svg10.dtd">
<svg version="1.0" xmlns="http://www.w3.org/2000/svg"
 width="260.000000pt" height="260.000000pt" viewBox="0 0 260.000000 260.000000"
 preserveAspectRatio="xMidYMid meet">
<metadata>
Created by potrace 1.11, written by Peter Selinger 2001-2013
</metadata>
<g transform="translate(0.000000,260.000000) scale(0.100000,-0.100000)"
fill="#000000" stroke="none">
<path d="M548 1890 l-3 -181 -115 -2 c-106 -2 -120 -5 -182 -34 -74 -35 -137
-92 -168 -153 -70 -138 -63 -327 18 -444 38 -56 129 -111 212 -130 103 -24
357 -18 453 10 16 5 17 40 17 560 l0 554 -115 0 -115 0 -2 -180z m-10 -378 c9
-7 12 -53 10 -198 l-3 -189 -60 -3 c-112 -6 -183 42 -204 137 -32 150 49 261
189 261 30 0 61 -4 68 -8z"/>
<path d="M930 1945 l0 -125 115 0 115 0 0 125 0 125 -115 0 -115 0 0 -125z"/>
<path d="M1240 1375 l0 -645 565 0 565 0 0 645 0 645 -565 0 -565 0 0 -645z
m1100 0 l0 -615 -535 0 -535 0 0 615 0 615 535 0 535 0 0 -615z"/>
<path d="M1755 1759 c-128 -19 -266 -123 -320 -241 -110 -241 12 -525 257
-599 90 -28 224 -23 310 10 84 32 160 106 202 195 32 66 65 181 55 190 -2 2
-61 6 -131 8 l-127 3 -11 -44 c-22 -90 -75 -131 -166 -131 -62 0 -110 25 -142
73 -23 34 -27 52 -27 107 0 56 4 73 27 108 73 110 228 105 288 -11 l25 -47 55
5 c30 2 90 7 132 11 l78 6 -6 26 c-3 15 -21 60 -39 99 -80 173 -257 262 -460
232z"/>
<path d="M930 1443 c0 -142 -5 -314 -10 -382 -8 -108 -13 -132 -40 -188 -32
-65 -75 -106 -147 -141 -18 -9 -33 -18 -33 -21 0 -3 48 -28 106 -55 l106 -50
47 25 c98 52 168 151 190 273 7 36 11 204 11 428 l0 368 -115 0 -115 0 0 -257z"/>
</g>
</svg>
